<svg id="Group_1492" data-name="Group 1492" xmlns="http://www.w3.org/2000/svg" xmlns:xlink="http://www.w3.org/1999/xlink" width="18.671" height="13.572" viewBox="0 0 18.671 13.572">
  <defs>
    <clipPath id="clip-path">
      <rect id="Rectangle_5" data-name="Rectangle 5" width="18.671" height="13.572" fill="none"/>
    </clipPath>
  </defs>
  <g id="Group_1441" data-name="Group 1441" clip-path="url(#clip-path)">
    <path id="Path_1037" data-name="Path 1037" d="M15.712,7.621h-.23q-7.238,0-14.475,0a1.526,1.526,0,0,1-.393-.034.842.842,0,0,1,.2-1.652c.079,0,.159,0,.239,0H15.714l.061-.087a.8.8,0,0,1-.191-.106q-2.119-2.113-4.235-4.229a.859.859,0,0,1-.271-.9A.844.844,0,0,1,12.409.18a1.913,1.913,0,0,1,.174.163l5.736,5.736a.868.868,0,0,1,0,1.4q-2.889,2.889-5.777,5.779a.872.872,0,0,1-.9.286.844.844,0,0,1-.429-1.354c.046-.056.1-.106.151-.158q2.109-2.109,4.219-4.217a1.006,1.006,0,0,1,.179-.116l-.053-.075" transform="translate(0 0)" fill="#fff" />
  </g>
</svg>
