<svg id="Group_1791" data-name="Group 1791" xmlns="http://www.w3.org/2000/svg" xmlns:xlink="http://www.w3.org/1999/xlink" width="20" height="20" viewBox="0 0 20 20">
  <defs>
    <clipPath id="clip-path">
      <rect id="Rectangle_244" data-name="Rectangle 244" width="20" height="20" fill="none"/>
    </clipPath>
  </defs>
  <g id="Group_1790" data-name="Group 1790" clip-path="url(#clip-path)">
    <path id="Path_1690" data-name="Path 1690" d="M20,10A10,10,0,1,1,10,0,10,10,0,0,1,20,10" fill="#4467ad"/>
    <path id="Path_1691" data-name="Path 1691" d="M10.774,8.636c.164-.185.3-.372.468-.531a2.569,2.569,0,0,1,1.848-.729,4.3,4.3,0,0,1,1.163.141,2.273,2.273,0,0,1,1.613,1.7,7.11,7.11,0,0,1,.214,1.943c0,1.382,0,2.763,0,4.144,0,.13-.036.164-.163.163q-1.068-.009-2.135,0c-.125,0-.152-.038-.152-.156q.006-1.972,0-3.943a3.517,3.517,0,0,0-.115-.979,1.1,1.1,0,0,0-1.21-.858,1.322,1.322,0,0,0-1.39,1.32,4.89,4.89,0,0,0-.038.617c0,1.278,0,2.557,0,3.835,0,.127-.031.165-.161.164-.717-.007-1.434-.006-2.151,0-.115,0-.148-.03-.148-.146q0-3.8,0-7.593c0-.125.041-.154.159-.153q1.021.008,2.042,0c.126,0,.158.04.155.158-.007.3,0,.605,0,.908" fill="#fefefe"/>
    <path id="Path_1692" data-name="Path 1692" d="M6.874,11.528c0,1.252,0,2.5,0,3.756,0,.139-.034.181-.178.18-.711-.008-1.423-.006-2.134,0-.114,0-.149-.028-.148-.146q0-3.8,0-7.605c0-.105.025-.142.137-.142.722,0,1.443.007,2.165,0,.139,0,.157.052.157.171q0,1.893,0,3.787" fill="#fefefe"/>
    <path id="Path_1693" data-name="Path 1693" d="M7.071,5.058A1.421,1.421,0,1,1,5.652,3.644,1.425,1.425,0,0,1,7.071,5.058" fill="#fefefe"/>
  </g>
</svg>
